<svg xmlns="http://www.w3.org/2000/svg" viewBox="0 0 358 252"><defs><style>.cls-1{fill:#fff;}.cls-2{fill:#ff6319;}.cls-3{fill:#a6a6a6;}.cls-4{fill:#33648e;}</style></defs><title>Asset 6</title><g id="Layer_2" data-name="Layer 2"><g id="Layer_1-2" data-name="Layer 1"><rect class="cls-1" width="358" height="252"/><polyline class="cls-2" points="92.38 187.1 81.36 187.1 81.36 166.02 92.38 166.02"/><polyline class="cls-2" points="148.4 166.02 299.97 166.02 299.97 187.1 148.4 187.1"/><rect class="cls-3" x="171.73" y="202.56" width="115.62" height="2"/><polyline class="cls-4" points="92.38 142.65 81.36 142.65 81.36 103.23 92.38 103.23"/><polyline class="cls-4" points="238.02 103.23 253.87 103.23 253.87 103.23 253.87 142.65 253.87 142.65 238.02 142.65"/><polyline class="cls-4" points="148.86 103.23 164.72 103.23 164.72 103.23 164.72 142.65 164.72 142.65 148.86 142.65"/><path class="cls-3" d="M92.38,193.69H76.81a2.06,2.06,0,0,1-1.94-2.17V84.35a2.06,2.06,0,0,1,1.94-2.16H304.46a2.06,2.06,0,0,1,1.93,2.16v7.34h-2V84.35a.5.5,0,0,0,0-.16H76.91a.31.31,0,0,0,0,.16V191.52a.35.35,0,0,0,0,.17H92.38Z"/><path class="cls-3" d="M61.69,193.69H46.29v-2h15.3a.35.35,0,0,0,0-.17V84.35a.31.31,0,0,0,0-.16H46.13v-2H61.69a2.06,2.06,0,0,1,1.94,2.16V191.52A2.06,2.06,0,0,1,61.69,193.69Z"/><path class="cls-3" d="M304.46,197.7H148.4v-2h156a.5.5,0,0,0,0-.16V157.18h2v38.36A2.06,2.06,0,0,1,304.46,197.7Z"/><path class="cls-3" d="M311.87,148.69H259.65a1.39,1.39,0,0,1-1.28-1.53V98.72a1.39,1.39,0,0,1,1.28-1.53h52.22v2h-51.5v47.5h51.5Z"/><path class="cls-3" d="M232.27,148.69H171a1.38,1.38,0,0,1-1.27-1.53V98.72A1.38,1.38,0,0,1,171,97.19h61.29a1.39,1.39,0,0,1,1.27,1.53v48.44A1.39,1.39,0,0,1,232.27,148.69Zm-60.56-2h59.83V99.19H171.71Zm0-48h0Z"/><rect class="cls-3" x="211.37" y="157.19" width="75.98" height="2"/><rect class="cls-3" x="105.36" y="191.57" width="30.59" height="2"/><rect class="cls-3" x="122.7" y="64.81" width="30.59" height="2" transform="translate(-6.12 116.85) rotate(-45)"/><rect class="cls-3" x="109.08" y="64.81" width="30.59" height="2" transform="translate(-10.11 107.22) rotate(-45)"/><rect class="cls-3" x="97.25" y="202.56" width="46.5" height="2"/><rect class="cls-1" x="172.39" y="175.56" width="75.98" height="2"/><path class="cls-3" d="M143.87,187.1h-2V99.19h-43V187.1h-2V98.6a1.45,1.45,0,0,1,1.49-1.41h44a1.44,1.44,0,0,1,1.48,1.41Z"/><rect class="cls-3" x="68.39" y="91.19" width="2" height="93.5"/><rect class="cls-3" x="96.69" y="47.44" width="115.62" height="2"/></g></g></svg>