<?xml version="1.0" encoding="UTF-8" standalone="no"?>
<!--Generator: Xara Xtreme (www.xara.com), SVG filter version: 1.0.0.13-->
<svg
   xmlns:dc="http://purl.org/dc/elements/1.1/"
   xmlns:cc="http://web.resource.org/cc/"
   xmlns:rdf="http://www.w3.org/1999/02/22-rdf-syntax-ns#"
   xmlns:svg="http://www.w3.org/2000/svg"
   xmlns="http://www.w3.org/2000/svg"
   xmlns:sodipodi="http://sodipodi.sourceforge.net/DTD/sodipodi-0.dtd"
   xmlns:inkscape="http://www.inkscape.org/namespaces/inkscape"
   stroke-width="0.501"
   stroke-linejoin="bevel"
   fill-rule="evenodd"
   version="1.0"
   overflow="visible"
   width="750"
   height="410.20401"
   viewBox="0 0 600 450"
   id="svg2"
   sodipodi:version="0.32"
   inkscape:version="0.45.1"
   sodipodi:docname="PKP.svg"
   inkscape:output_extension="org.inkscape.output.svg.inkscape"
   sodipodi:docbase="C:\Documents and Settings\Halibutt\Pulpit">
  <metadata
     id="metadata91">
    <rdf:RDF>
      <cc:Work
         rdf:about="">
        <dc:format>image/svg+xml</dc:format>
        <dc:type
           rdf:resource="http://purl.org/dc/dcmitype/StillImage" />
      </cc:Work>
    </rdf:RDF>
  </metadata>
  <sodipodi:namedview
     inkscape:window-height="753"
     inkscape:window-width="1280"
     inkscape:pageshadow="2"
     inkscape:pageopacity="0.0"
     guidetolerance="10.0"
     gridtolerance="10.0"
     objecttolerance="10.0"
     borderopacity="1.0"
     bordercolor="#666666"
     pagecolor="#ffffff"
     id="base"
     height="410.204px"
     width="750px"
     inkscape:zoom="0.67022222"
     inkscape:cx="375"
     inkscape:cy="161.8866"
     inkscape:window-x="0"
     inkscape:window-y="15"
     inkscape:current-layer="Spread" />
  <defs
     id="defs4" />
  <g
     style="font-size:16px;fill:none;stroke:#000000;font-family:Times New Roman"
     transform="matrix(4.3977472,0,0,-4.3896015,-1660.8478,1234.0618)"
     id="Spread">
    <path
       d="M 514.097,178.618 L 539.419,228.628 L 513.493,281.115 L 399.882,281.13 L 386.912,256.433 L 512.254,256.417 L 525.835,229.248 L 500.513,178.62 L 514.097,178.618 M 399.26,243.465 L 399.258,231.734 L 404.815,231.733 C 407.903,232.35 408.52,234.202 408.52,234.82 C 409.138,236.672 409.138,237.907 409.139,239.142 C 408.521,240.994 407.904,242.229 405.434,243.465 L 399.26,243.465 M 381.972,250.877 L 408.523,250.874 C 417.167,250.872 422.106,244.697 422.105,238.523 C 422.103,228.026 414.694,225.557 409.754,225.558 L 399.257,225.559 L 399.256,216.297 C 399.256,215.68 399.874,215.063 401.108,215.062 L 406.048,215.062 L 406.047,208.887 L 381.967,208.891 L 381.968,215.065 L 385.672,215.064 C 386.29,215.064 387.525,215.681 387.525,216.299 L 387.528,244.084 L 381.971,244.085 L 381.972,250.877 M 491.26,244.071 L 491.258,232.339 L 497.433,232.338 C 500.52,232.338 500.52,234.19 501.138,235.425 C 501.756,237.277 501.756,237.895 501.138,239.747 C 500.521,241.6 500.521,242.835 497.434,244.07 L 491.26,244.071 M 473.972,250.865 L 500.522,250.861 C 509.167,250.86 514.106,244.685 514.105,239.128 C 514.103,228.014 506.693,226.163 502.371,226.163 L 491.257,226.165 L 491.256,216.903 C 491.874,216.286 492.491,215.668 493.726,215.668 L 498.048,215.667 L 498.047,209.493 L 473.967,209.496 L 473.967,215.67 L 478.289,215.67 C 478.907,215.67 479.525,215.67 480.142,216.904 L 480.146,244.072 L 473.971,244.073 L 473.972,250.865 M 422.107,250.872 L 444.952,250.869 L 444.951,244.694 L 441.864,244.695 C 440.629,244.695 439.394,244.078 439.394,243.46 L 439.392,231.111 L 451.126,243.458 C 451.743,244.076 451.126,244.693 450.508,244.693 L 448.038,244.694 L 448.039,250.868 L 468.415,250.866 L 468.414,244.691 L 462.24,244.692 L 452.977,235.431 L 465.324,217.524 C 465.941,216.906 466.558,215.671 468.41,215.671 L 470.88,215.671 L 470.879,209.496 L 448.034,209.499 L 448.035,215.674 L 450.505,215.673 C 451.739,215.673 451.74,216.908 451.122,216.908 L 444.949,226.788 L 439.391,221.232 L 439.39,216.91 C 439.39,216.91 439.39,215.675 441.86,215.675 L 444.947,215.674 L 444.946,209.5 L 423.336,209.503 L 423.337,215.677 L 425.807,215.677 C 426.424,215.677 428.276,215.676 428.276,216.911 L 428.28,243.462 C 427.662,244.079 427.663,244.697 425.81,244.697 L 422.106,244.697 C 422.106,244.697 422.107,250.872 422.107,250.872 M 377.654,281.133 L 352.332,230.505 L 378.258,178.636 L 492.486,178.621 L 504.838,203.317 L 379.496,203.334 L 365.916,229.886 L 391.238,281.131 L 377.654,281.133"
       id="path88"
       style="fill:#013765;stroke:none;fill-opacity:1" />
  </g>
</svg>
